<svg height="10" viewBox="0 0 375 10" width="375" xmlns="http://www.w3.org/2000/svg"><path d="M374.85 9.45c-4.171 0-6.32-1.84-8.213-3.464-1.7-1.458-3.168-2.716-6.207-2.716-3.039 0-4.506 1.258-6.207 2.716-1.894 1.624-4.042 3.464-8.212 3.464-4.172 0-6.32-1.84-8.213-3.464-1.7-1.458-3.168-2.716-6.206-2.716-3.039 0-4.507 1.258-6.208 2.716-1.894 1.624-4.042 3.464-8.212 3.464-4.172 0-6.318-1.84-8.213-3.464-1.7-1.458-3.168-2.716-6.206-2.716-3.038 0-4.507 1.258-6.208 2.716-1.893 1.624-4.04 3.464-8.212 3.464s-6.319-1.84-8.212-3.464c-1.7-1.458-3.168-2.716-6.206-2.716-3.038 0-4.506 1.258-6.207 2.716-1.894 1.624-4.041 3.464-8.212 3.464-4.17 0-6.318-1.84-8.212-3.464-1.7-1.458-3.168-2.716-6.206-2.716-3.037 0-4.505 1.258-6.206 2.716-1.893 1.624-4.04 3.464-8.211 3.464s-6.319-1.84-8.213-3.464c-1.7-1.458-3.168-2.716-6.206-2.716-3.037 0-4.505 1.258-6.205 2.716-1.893 1.624-4.04 3.464-8.211 3.464-4.17 0-6.318-1.84-8.212-3.464-1.7-1.458-3.169-2.716-6.207-2.716-3.037 0-4.505 1.258-6.205 2.716-1.894 1.624-4.04 3.464-8.212 3.464-4.17 0-6.316-1.84-8.211-3.464-1.7-1.458-3.166-2.716-6.204-2.716s-4.506 1.258-6.205 2.716c-1.895 1.624-4.042 3.464-8.213 3.464-4.17 0-6.317-1.84-8.21-3.464-1.701-1.458-3.17-2.716-6.208-2.716-3.036 0-4.504 1.258-6.203 2.716-1.894 1.624-4.04 3.464-8.21 3.464s-6.318-1.84-8.213-3.464c-1.698-1.458-3.166-2.716-6.203-2.716-3.039 0-4.507 1.258-6.207 2.716C92.808 7.61 90.66 9.45 86.49 9.45c-4.17 0-6.317-1.84-8.21-3.464-1.7-1.458-3.168-2.716-6.205-2.716-3.036 0-4.504 1.258-6.203 2.716-1.893 1.624-4.04 3.464-8.21 3.464s-6.318-1.84-8.211-3.464c-1.7-1.458-3.168-2.716-6.205-2.716-3.038 0-4.506 1.258-6.207 2.716-1.893 1.624-4.041 3.464-8.212 3.464-4.17 0-6.317-1.84-8.211-3.464-1.7-1.458-3.167-2.716-6.204-2.716-3.036 0-4.503 1.258-6.202 2.716C6.316 7.61 4.17 9.45 0 9.45V6.18c3.036 0 4.503-1.258 6.203-2.716C8.096 1.841 10.243 0 14.413 0c4.17 0 6.315 1.841 8.21 3.464 1.7 1.458 3.166 2.716 6.204 2.716s4.506-1.258 6.206-2.716C36.928 1.841 39.075 0 43.246 0c4.17 0 6.317 1.841 8.21 3.464 1.7 1.458 3.168 2.716 6.205 2.716 3.038 0 4.505-1.258 6.204-2.716C65.76 1.841 67.905 0 72.075 0c4.17 0 6.317 1.841 8.21 3.464 1.7 1.458 3.168 2.716 6.205 2.716 3.038 0 4.507-1.258 6.207-2.716C94.592 1.841 96.738 0 100.91 0c4.17 0 6.317 1.841 8.21 3.464 1.7 1.458 3.168 2.716 6.205 2.716s4.506-1.258 6.204-2.716C123.423 1.841 125.57 0 129.739 0c4.172 0 6.319 1.841 8.213 3.464 1.7 1.458 3.168 2.716 6.205 2.716 3.038 0 4.506-1.258 6.207-2.716C152.257 1.841 154.404 0 158.575 0c4.17 0 6.317 1.841 8.211 3.464 1.7 1.458 3.166 2.716 6.204 2.716 3.039 0 4.506-1.258 6.206-2.716C181.09 1.841 183.236 0 187.407 0c4.172 0 6.318 1.841 8.213 3.464 1.7 1.458 3.167 2.716 6.206 2.716 3.038 0 4.506-1.258 6.205-2.716C209.925 1.841 212.071 0 216.242 0s6.318 1.841 8.212 3.464c1.7 1.458 3.168 2.716 6.207 2.716s4.506-1.258 6.205-2.716C238.76 1.841 240.908 0 245.078 0c4.172 0 6.318 1.841 8.212 3.464 1.7 1.458 3.168 2.716 6.206 2.716 3.038 0 4.506-1.258 6.206-2.716C267.596 1.841 269.744 0 273.915 0c4.17 0 6.317 1.841 8.212 3.464 1.7 1.458 3.167 2.716 6.206 2.716s4.507-1.258 6.206-2.716C296.434 1.841 298.582 0 302.753 0s6.318 1.841 8.212 3.464c1.7 1.458 3.168 2.716 6.207 2.716s4.506-1.258 6.207-2.716C325.272 1.841 327.419 0 331.592 0c4.17 0 6.317 1.841 8.212 3.464 1.7 1.458 3.168 2.716 6.207 2.716 3.038 0 4.506-1.258 6.206-2.716C354.11 1.841 356.259 0 360.43 0c4.17 0 6.319 1.841 8.213 3.464 1.7 1.458 3.168 2.716 6.207 2.716z" fill="#f1e26f" fill-rule="evenodd"/></svg>